G04 This is an RS-274x file exported by *
G04 gerbv version 2.6.0 *
G04 More information is available about gerbv at *
G04 http://gerbv.gpleda.org/ *
G04 --End of header info--*
%MOIN*%
%FSLAX34Y34*%
%IPPOS*%
G04 --Define apertures--*
%ADD10C,0.0100*%
%ADD11C,0.0050*%
%ADD12C,0.0750*%
%ADD13C,0.0850*%
%ADD14C,0.1300*%
%ADD15C,0.0700*%
%ADD16C,0.0600*%
%AMMACRO17*
21,1,0.070000,0.070000,0.000000,0.000000,270.000000*
%
%ADD17MACRO17*%
G04 --Start main section--*
G54D12*
G01X0020197Y0003740D03*
G01X0020197Y0004528D03*
G01X0020197Y0005315D03*
G01X0020197Y0006102D03*
G01X0020197Y0006890D03*
G01X0044687Y0005315D03*
G01X0048227Y0005315D03*
G01X0057874Y0003740D03*
G01X0057874Y0004528D03*
G01X0057874Y0005315D03*
G01X0057874Y0006102D03*
G01X0057874Y0006890D03*
G54D13*
G01X0014488Y0004331D03*
G01X0014488Y0005315D03*
G01X0014488Y0006299D03*
G01X0045472Y0002855D03*
G01X0045472Y0007775D03*
G01X0047442Y0002855D03*
G01X0047442Y0007775D03*
G01X0063583Y0004331D03*
G01X0063583Y0005315D03*
G01X0063583Y0006299D03*
G54D14*
G01X0017441Y0002874D03*
G01X0017441Y0007756D03*
G01X0060630Y0002874D03*
G01X0060630Y0007756D03*
G54D15*
G01X0000850Y0000850D03*
G01X0000850Y0001850D03*
G01X0000850Y0002850D03*
G01X0000850Y0003850D03*
G01X0000850Y0004850D03*
G01X0000850Y0005850D03*
G01X0000850Y0006850D03*
G01X0000850Y0007850D03*
G01X0001850Y0000850D03*
G01X0001850Y0001850D03*
G01X0001850Y0002850D03*
G01X0001850Y0003850D03*
G01X0001850Y0004850D03*
G01X0001850Y0005850D03*
G01X0001850Y0006850D03*
G01X0001850Y0007850D03*
G01X0002850Y0000850D03*
G01X0002850Y0001850D03*
G01X0002850Y0002850D03*
G01X0002850Y0003850D03*
G01X0002850Y0004850D03*
G01X0002850Y0005850D03*
G01X0002850Y0006850D03*
G01X0002850Y0007850D03*
G01X0003850Y0000850D03*
G01X0003850Y0001850D03*
G01X0003850Y0002850D03*
G01X0003850Y0003850D03*
G01X0003850Y0004850D03*
G01X0003850Y0005850D03*
G01X0003850Y0006850D03*
G01X0003850Y0007850D03*
G01X0004850Y0000850D03*
G01X0004850Y0001850D03*
G01X0004850Y0002850D03*
G01X0004850Y0003850D03*
G01X0004850Y0004850D03*
G01X0004850Y0005850D03*
G01X0004850Y0006850D03*
G01X0004850Y0007850D03*
G01X0005850Y0000850D03*
G01X0005850Y0001850D03*
G01X0005850Y0002850D03*
G01X0005850Y0003850D03*
G01X0005850Y0004850D03*
G01X0005850Y0005850D03*
G01X0005850Y0006850D03*
G01X0005850Y0007850D03*
G01X0006850Y0000850D03*
G01X0006850Y0001850D03*
G01X0006850Y0002850D03*
G01X0006850Y0003850D03*
G01X0006850Y0004850D03*
G01X0006850Y0005850D03*
G01X0006850Y0006850D03*
G01X0006850Y0007850D03*
G01X0007850Y0000850D03*
G01X0007850Y0001850D03*
G01X0007850Y0002850D03*
G01X0007850Y0003850D03*
G01X0007850Y0004850D03*
G01X0007850Y0005850D03*
G01X0007850Y0006850D03*
G01X0007850Y0007850D03*
G01X0008850Y0000850D03*
G01X0008850Y0001850D03*
G01X0008850Y0002850D03*
G01X0008850Y0003850D03*
G01X0008850Y0004850D03*
G01X0008850Y0005850D03*
G01X0008850Y0006850D03*
G01X0008850Y0007850D03*
G01X0009850Y0000850D03*
G01X0009850Y0001850D03*
G01X0009850Y0002850D03*
G01X0009850Y0003850D03*
G01X0009850Y0004850D03*
G01X0009850Y0005850D03*
G01X0009850Y0006850D03*
G01X0009850Y0007850D03*
G01X0064950Y0000850D03*
G01X0064950Y0001850D03*
G01X0064950Y0002850D03*
G01X0064950Y0003850D03*
G01X0064950Y0004850D03*
G01X0064950Y0005850D03*
G01X0064950Y0006850D03*
G01X0064950Y0007850D03*
G01X0065950Y0000850D03*
G01X0065950Y0001850D03*
G01X0065950Y0002850D03*
G01X0065950Y0003850D03*
G01X0065950Y0004850D03*
G01X0065950Y0005850D03*
G01X0065950Y0006850D03*
G01X0065950Y0007850D03*
G01X0066950Y0000850D03*
G01X0066950Y0001850D03*
G01X0066950Y0002850D03*
G01X0066950Y0003850D03*
G01X0066950Y0004850D03*
G01X0066950Y0005850D03*
G01X0066950Y0006850D03*
G01X0066950Y0007850D03*
G01X0067950Y0000850D03*
G01X0067950Y0001850D03*
G01X0067950Y0002850D03*
G01X0067950Y0003850D03*
G01X0067950Y0004850D03*
G01X0067950Y0005850D03*
G01X0067950Y0006850D03*
G01X0067950Y0007850D03*
G01X0068950Y0000850D03*
G01X0068950Y0001850D03*
G01X0068950Y0002850D03*
G01X0068950Y0003850D03*
G01X0068950Y0004850D03*
G01X0068950Y0005850D03*
G01X0068950Y0006850D03*
G01X0068950Y0007850D03*
G01X0069950Y0000850D03*
G01X0069950Y0001850D03*
G01X0069950Y0002850D03*
G01X0069950Y0003850D03*
G01X0069950Y0004850D03*
G01X0069950Y0005850D03*
G01X0069950Y0006850D03*
G01X0069950Y0007850D03*
G01X0070950Y0000850D03*
G01X0070950Y0001850D03*
G01X0070950Y0002850D03*
G01X0070950Y0003850D03*
G01X0070950Y0004850D03*
G01X0070950Y0005850D03*
G01X0070950Y0006850D03*
G01X0070950Y0007850D03*
G01X0071950Y0000850D03*
G01X0071950Y0001850D03*
G01X0071950Y0002850D03*
G01X0071950Y0003850D03*
G01X0071950Y0004850D03*
G01X0071950Y0005850D03*
G01X0071950Y0006850D03*
G01X0071950Y0007850D03*
G01X0072950Y0000850D03*
G01X0072950Y0001850D03*
G01X0072950Y0002850D03*
G01X0072950Y0003850D03*
G01X0072950Y0004850D03*
G01X0072950Y0005850D03*
G01X0072950Y0006850D03*
G01X0072950Y0007850D03*
G01X0073950Y0000850D03*
G01X0073950Y0001850D03*
G01X0073950Y0002850D03*
G01X0073950Y0003850D03*
G01X0073950Y0004850D03*
G01X0073950Y0005850D03*
G01X0073950Y0006850D03*
G01X0073950Y0007850D03*
G54D16*
G01X0021309Y0004528D03*
G01X0021309Y0005709D03*
G01X0021309Y0006890D03*
G01X0023809Y0004528D03*
G01X0023809Y0005709D03*
G01X0023809Y0006890D03*
G01X0054380Y0003346D03*
G01X0054380Y0004528D03*
G01X0054380Y0006102D03*
G01X0056880Y0003346D03*
G01X0056880Y0004528D03*
G01X0056880Y0006102D03*
G54D17*
G01X0029039Y0004382D03*
G01X0029039Y0005382D03*
G01X0030039Y0004382D03*
G01X0030039Y0005382D03*
G01X0031039Y0004382D03*
G01X0031039Y0005382D03*
G01X0032039Y0004382D03*
G01X0032039Y0005382D03*
G01X0033039Y0004382D03*
G01X0033039Y0005382D03*
G01X0034039Y0004382D03*
G01X0034039Y0005382D03*
G01X0035039Y0004382D03*
G01X0035039Y0005382D03*
G01X0036039Y0004382D03*
G01X0036039Y0005382D03*
G01X0037039Y0004382D03*
G01X0037039Y0005382D03*
G01X0038039Y0004382D03*
G01X0038039Y0005382D03*
G01X0039039Y0004382D03*
G01X0039039Y0005382D03*
G01X0040039Y0004382D03*
G01X0040039Y0005382D03*
G01X0041039Y0004382D03*
G01X0041039Y0005382D03*
M02*
