M48
INCH,TZ
T10C0.048
T11C0.040
T12C0.044
T13C0.032
T14C0.028
T15C0.098
%
T10
X047442Y002855
X045472Y002855
X045472Y007775
X047442Y007775
T11
X020197Y003740
X057874Y003740
X057874Y004528
X041039Y004382
X040039Y004382
X039039Y004382
X038039Y004382
X037039Y004382
X036039Y004382
X035039Y004382
X034039Y004382
X033039Y004382
X032039Y004382
X031039Y004382
X030039Y004382
X029039Y004382
X020197Y004528
X020197Y005315
X029039Y005382
X030039Y005382
X031039Y005382
X032039Y005382
X033039Y005382
X034039Y005382
X035039Y005382
X036039Y005382
X037039Y005382
X038039Y005382
X039039Y005382
X040039Y005382
X041039Y005382
X057874Y005315
X057874Y006102
X057874Y006890
X020197Y006102
X020197Y006890
T12
X063583Y004331
X014488Y004331
X014488Y005315
X063583Y005315
X063583Y006299
X014488Y006299
T13
X073950Y000850
X072950Y000850
X071950Y000850
X070950Y000850
X069950Y000850
X068950Y000850
X067950Y000850
X066950Y000850
X065950Y000850
X064950Y000850
X009850Y000850
X008850Y000850
X007850Y000850
X006850Y000850
X005850Y000850
X004850Y000850
X003850Y000850
X002850Y000850
X001850Y000850
X000850Y000850
X000850Y001850
X001850Y001850
X002850Y001850
X003850Y001850
X004850Y001850
X005850Y001850
X006850Y001850
X007850Y001850
X008850Y001850
X009850Y001850
X064950Y001850
X065950Y001850
X066950Y001850
X067950Y001850
X068950Y001850
X069950Y001850
X070950Y001850
X071950Y001850
X072950Y001850
X073950Y001850
X073950Y002850
X072950Y002850
X071950Y002850
X070950Y002850
X069950Y002850
X068950Y002850
X067950Y002850
X066950Y002850
X065950Y002850
X064950Y002850
X009850Y002850
X008850Y002850
X007850Y002850
X006850Y002850
X005850Y002850
X004850Y002850
X003850Y002850
X002850Y002850
X001850Y002850
X000850Y002850
X000850Y003850
X001850Y003850
X002850Y003850
X003850Y003850
X004850Y003850
X005850Y003850
X006850Y003850
X007850Y003850
X008850Y003850
X009850Y003850
X064950Y003850
X065950Y003850
X066950Y003850
X067950Y003850
X068950Y003850
X069950Y003850
X070950Y003850
X071950Y003850
X072950Y003850
X073950Y003850
X073950Y004850
X072950Y004850
X071950Y004850
X070950Y004850
X069950Y004850
X068950Y004850
X067950Y004850
X066950Y004850
X065950Y004850
X064950Y004850
X009850Y004850
X008850Y004850
X007850Y004850
X006850Y004850
X005850Y004850
X004850Y004850
X003850Y004850
X002850Y004850
X001850Y004850
X000850Y004850
X000850Y005850
X001850Y005850
X002850Y005850
X003850Y005850
X004850Y005850
X005850Y005850
X006850Y005850
X007850Y005850
X008850Y005850
X009850Y005850
X064950Y005850
X065950Y005850
X066950Y005850
X067950Y005850
X068950Y005850
X069950Y005850
X070950Y005850
X071950Y005850
X072950Y005850
X073950Y005850
X073950Y006850
X072950Y006850
X071950Y006850
X070950Y006850
X069950Y006850
X068950Y006850
X067950Y006850
X066950Y006850
X065950Y006850
X064950Y006850
X009850Y006850
X008850Y006850
X007850Y006850
X006850Y006850
X005850Y006850
X004850Y006850
X003850Y006850
X002850Y006850
X001850Y006850
X000850Y006850
X000850Y007850
X001850Y007850
X002850Y007850
X003850Y007850
X004850Y007850
X005850Y007850
X006850Y007850
X007850Y007850
X008850Y007850
X009850Y007850
X064950Y007850
X065950Y007850
X066950Y007850
X067950Y007850
X068950Y007850
X069950Y007850
X070950Y007850
X071950Y007850
X072950Y007850
X073950Y007850
T14
X054380Y003346
X056880Y003346
X056880Y004528
X054380Y004528
X023809Y004528
X021309Y004528
X021309Y005709
X023809Y005709
X056880Y006102
X054380Y006102
X023809Y006890
X021309Y006890
T15
X060630Y002874
X017441Y002874
X017441Y007756
X060630Y007756
X044687Y005315
X048227Y005315
M30

