G04 This is an RS-274x file exported by *
G04 gerbv version 2.6.0 *
G04 More information is available about gerbv at *
G04 http://gerbv.gpleda.org/ *
G04 --End of header info--*
%MOIN*%
%FSLAX34Y34*%
%IPPOS*%
G04 --Define apertures--*
%ADD10C,0.0100*%
%ADD11C,0.0150*%
%ADD12C,0.0200*%
%ADD13C,0.0050*%
%ADD14C,0.0750*%
%ADD15C,0.1250*%
%ADD16C,0.0650*%
%ADD17C,0.0600*%
%ADD18C,0.0500*%
%AMMACRO19*
21,1,0.060000,0.060000,0.000000,0.000000,270.000000*
%
%ADD19MACRO19*%
G04 --Start main section--*
G54D11*
G01X0014488Y0006299D02*
G01X0013664Y0005475D01*
G01X0013664Y0005475D02*
G01X0013664Y0003501D01*
G01X0013664Y0003501D02*
G01X0015214Y0001952D01*
G01X0015214Y0001952D02*
G01X0023233Y0001952D01*
G01X0023233Y0001952D02*
G01X0027139Y0005857D01*
G01X0027139Y0005857D02*
G01X0029564Y0005857D01*
G01X0029564Y0005857D02*
G01X0030039Y0005382D01*
G01X0021309Y0004528D02*
G01X0020197Y0004528D01*
G01X0021309Y0005709D02*
G01X0020915Y0006102D01*
G01X0020915Y0006102D02*
G01X0020197Y0006102D01*
G01X0021309Y0006890D02*
G01X0020197Y0006890D01*
G01X0031039Y0005382D02*
G01X0030314Y0006107D01*
G01X0030314Y0006107D02*
G01X0027035Y0006107D01*
G01X0027035Y0006107D02*
G01X0024169Y0003240D01*
G01X0024169Y0003240D02*
G01X0018994Y0003240D01*
G01X0018994Y0003240D02*
G01X0017904Y0004331D01*
G01X0017904Y0004331D02*
G01X0014488Y0004331D01*
G01X0032039Y0005382D02*
G01X0031064Y0006357D01*
G01X0031064Y0006357D02*
G01X0026693Y0006357D01*
G01X0026693Y0006357D02*
G01X0024439Y0004103D01*
G01X0024439Y0004103D02*
G01X0022984Y0004103D01*
G01X0022984Y0004103D02*
G01X0021969Y0005118D01*
G01X0021969Y0005118D02*
G01X0021299Y0005118D01*
G01X0021299Y0005118D02*
G01X0021102Y0005315D01*
G01X0021102Y0005315D02*
G01X0020197Y0005315D01*
G01X0038039Y0005382D02*
G01X0036531Y0006890D01*
G01X0036531Y0006890D02*
G01X0023809Y0006890D01*
G01X0039039Y0005382D02*
G01X0037106Y0007315D01*
G01X0037106Y0007315D02*
G01X0023633Y0007315D01*
G01X0023633Y0007315D02*
G01X0023384Y0007066D01*
G01X0023384Y0007066D02*
G01X0023384Y0006134D01*
G01X0023384Y0006134D02*
G01X0023809Y0005709D01*
G01X0040039Y0005382D02*
G01X0037856Y0007565D01*
G01X0037856Y0007565D02*
G01X0023529Y0007565D01*
G01X0023529Y0007565D02*
G01X0023134Y0007169D01*
G01X0023134Y0007169D02*
G01X0023134Y0005203D01*
G01X0023134Y0005203D02*
G01X0023809Y0004528D01*
G01X0041039Y0004382D02*
G01X0043483Y0001938D01*
G01X0043483Y0001938D02*
G01X0050216Y0001938D01*
G01X0050216Y0001938D02*
G01X0054380Y0006102D01*
G01X0054380Y0003346D02*
G01X0052364Y0001330D01*
G01X0052364Y0001330D02*
G01X0042091Y0001330D01*
G01X0042091Y0001330D02*
G01X0039039Y0004382D01*
G01X0054380Y0004528D02*
G01X0051433Y0001580D01*
G01X0051433Y0001580D02*
G01X0042841Y0001580D01*
G01X0042841Y0001580D02*
G01X0040039Y0004382D01*
G01X0057874Y0003740D02*
G01X0057480Y0003346D01*
G01X0057480Y0003346D02*
G01X0056880Y0003346D01*
G01X0057874Y0004528D02*
G01X0056880Y0004528D01*
G01X0057874Y0005315D02*
G01X0056417Y0005315D01*
G01X0056417Y0005315D02*
G01X0054906Y0006826D01*
G01X0054906Y0006826D02*
G01X0043972Y0006826D01*
G01X0043972Y0006826D02*
G01X0042053Y0004907D01*
G01X0042053Y0004907D02*
G01X0036514Y0004907D01*
G01X0036514Y0004907D02*
G01X0036039Y0005382D01*
G01X0057874Y0006102D02*
G01X0056880Y0006102D01*
G01X0063583Y0004331D02*
G01X0060332Y0001080D01*
G01X0060332Y0001080D02*
G01X0040341Y0001080D01*
G01X0040341Y0001080D02*
G01X0037039Y0004382D01*
G01X0063583Y0006299D02*
G01X0064133Y0005749D01*
G01X0064133Y0005749D02*
G01X0064133Y0004103D01*
G01X0064133Y0004103D02*
G01X0060860Y0000830D01*
G01X0060860Y0000830D02*
G01X0039591Y0000830D01*
G01X0039591Y0000830D02*
G01X0036039Y0004382D01*
G54D12*
G01X0033039Y0005382D02*
G01X0033039Y0004882D01*
G01X0033039Y0004882D02*
G01X0035039Y0004882D01*
G01X0035039Y0004882D02*
G01X0035039Y0004382D01*
G54D14*
G01X0014488Y0004331D03*
G01X0014488Y0005315D03*
G01X0014488Y0006299D03*
G01X0045472Y0002855D03*
G01X0045472Y0007775D03*
G01X0047442Y0002855D03*
G01X0047442Y0007775D03*
G01X0063583Y0004331D03*
G01X0063583Y0005315D03*
G01X0063583Y0006299D03*
G54D15*
G01X0017441Y0002874D03*
G01X0017441Y0007756D03*
G01X0060630Y0002874D03*
G01X0060630Y0007756D03*
G54D16*
G01X0020197Y0003740D03*
G01X0020197Y0004528D03*
G01X0020197Y0005315D03*
G01X0020197Y0006102D03*
G01X0020197Y0006890D03*
G01X0057874Y0003740D03*
G01X0057874Y0004528D03*
G01X0057874Y0005315D03*
G01X0057874Y0006102D03*
G01X0057874Y0006890D03*
G54D17*
G01X0000850Y0000850D03*
G01X0000850Y0001850D03*
G01X0000850Y0002850D03*
G01X0000850Y0003850D03*
G01X0000850Y0004850D03*
G01X0000850Y0005850D03*
G01X0000850Y0006850D03*
G01X0000850Y0007850D03*
G01X0001850Y0000850D03*
G01X0001850Y0001850D03*
G01X0001850Y0002850D03*
G01X0001850Y0003850D03*
G01X0001850Y0004850D03*
G01X0001850Y0005850D03*
G01X0001850Y0006850D03*
G01X0001850Y0007850D03*
G01X0002850Y0000850D03*
G01X0002850Y0001850D03*
G01X0002850Y0002850D03*
G01X0002850Y0003850D03*
G01X0002850Y0004850D03*
G01X0002850Y0005850D03*
G01X0002850Y0006850D03*
G01X0002850Y0007850D03*
G01X0003850Y0000850D03*
G01X0003850Y0001850D03*
G01X0003850Y0002850D03*
G01X0003850Y0003850D03*
G01X0003850Y0004850D03*
G01X0003850Y0005850D03*
G01X0003850Y0006850D03*
G01X0003850Y0007850D03*
G01X0004850Y0000850D03*
G01X0004850Y0001850D03*
G01X0004850Y0002850D03*
G01X0004850Y0003850D03*
G01X0004850Y0004850D03*
G01X0004850Y0005850D03*
G01X0004850Y0006850D03*
G01X0004850Y0007850D03*
G01X0005850Y0000850D03*
G01X0005850Y0001850D03*
G01X0005850Y0002850D03*
G01X0005850Y0003850D03*
G01X0005850Y0004850D03*
G01X0005850Y0005850D03*
G01X0005850Y0006850D03*
G01X0005850Y0007850D03*
G01X0006850Y0000850D03*
G01X0006850Y0001850D03*
G01X0006850Y0002850D03*
G01X0006850Y0003850D03*
G01X0006850Y0004850D03*
G01X0006850Y0005850D03*
G01X0006850Y0006850D03*
G01X0006850Y0007850D03*
G01X0007850Y0000850D03*
G01X0007850Y0001850D03*
G01X0007850Y0002850D03*
G01X0007850Y0003850D03*
G01X0007850Y0004850D03*
G01X0007850Y0005850D03*
G01X0007850Y0006850D03*
G01X0007850Y0007850D03*
G01X0008850Y0000850D03*
G01X0008850Y0001850D03*
G01X0008850Y0002850D03*
G01X0008850Y0003850D03*
G01X0008850Y0004850D03*
G01X0008850Y0005850D03*
G01X0008850Y0006850D03*
G01X0008850Y0007850D03*
G01X0009850Y0000850D03*
G01X0009850Y0001850D03*
G01X0009850Y0002850D03*
G01X0009850Y0003850D03*
G01X0009850Y0004850D03*
G01X0009850Y0005850D03*
G01X0009850Y0006850D03*
G01X0009850Y0007850D03*
G01X0064950Y0000850D03*
G01X0064950Y0001850D03*
G01X0064950Y0002850D03*
G01X0064950Y0003850D03*
G01X0064950Y0004850D03*
G01X0064950Y0005850D03*
G01X0064950Y0006850D03*
G01X0064950Y0007850D03*
G01X0065950Y0000850D03*
G01X0065950Y0001850D03*
G01X0065950Y0002850D03*
G01X0065950Y0003850D03*
G01X0065950Y0004850D03*
G01X0065950Y0005850D03*
G01X0065950Y0006850D03*
G01X0065950Y0007850D03*
G01X0066950Y0000850D03*
G01X0066950Y0001850D03*
G01X0066950Y0002850D03*
G01X0066950Y0003850D03*
G01X0066950Y0004850D03*
G01X0066950Y0005850D03*
G01X0066950Y0006850D03*
G01X0066950Y0007850D03*
G01X0067950Y0000850D03*
G01X0067950Y0001850D03*
G01X0067950Y0002850D03*
G01X0067950Y0003850D03*
G01X0067950Y0004850D03*
G01X0067950Y0005850D03*
G01X0067950Y0006850D03*
G01X0067950Y0007850D03*
G01X0068950Y0000850D03*
G01X0068950Y0001850D03*
G01X0068950Y0002850D03*
G01X0068950Y0003850D03*
G01X0068950Y0004850D03*
G01X0068950Y0005850D03*
G01X0068950Y0006850D03*
G01X0068950Y0007850D03*
G01X0069950Y0000850D03*
G01X0069950Y0001850D03*
G01X0069950Y0002850D03*
G01X0069950Y0003850D03*
G01X0069950Y0004850D03*
G01X0069950Y0005850D03*
G01X0069950Y0006850D03*
G01X0069950Y0007850D03*
G01X0070950Y0000850D03*
G01X0070950Y0001850D03*
G01X0070950Y0002850D03*
G01X0070950Y0003850D03*
G01X0070950Y0004850D03*
G01X0070950Y0005850D03*
G01X0070950Y0006850D03*
G01X0070950Y0007850D03*
G01X0071950Y0000850D03*
G01X0071950Y0001850D03*
G01X0071950Y0002850D03*
G01X0071950Y0003850D03*
G01X0071950Y0004850D03*
G01X0071950Y0005850D03*
G01X0071950Y0006850D03*
G01X0071950Y0007850D03*
G01X0072950Y0000850D03*
G01X0072950Y0001850D03*
G01X0072950Y0002850D03*
G01X0072950Y0003850D03*
G01X0072950Y0004850D03*
G01X0072950Y0005850D03*
G01X0072950Y0006850D03*
G01X0072950Y0007850D03*
G01X0073950Y0000850D03*
G01X0073950Y0001850D03*
G01X0073950Y0002850D03*
G01X0073950Y0003850D03*
G01X0073950Y0004850D03*
G01X0073950Y0005850D03*
G01X0073950Y0006850D03*
G01X0073950Y0007850D03*
G54D18*
G01X0021309Y0004528D03*
G01X0021309Y0005709D03*
G01X0021309Y0006890D03*
G01X0023809Y0004528D03*
G01X0023809Y0005709D03*
G01X0023809Y0006890D03*
G01X0054380Y0003346D03*
G01X0054380Y0004528D03*
G01X0054380Y0006102D03*
G01X0056880Y0003346D03*
G01X0056880Y0004528D03*
G01X0056880Y0006102D03*
G54D19*
G01X0029039Y0004382D03*
G01X0029039Y0005382D03*
G01X0030039Y0004382D03*
G01X0030039Y0005382D03*
G01X0031039Y0004382D03*
G01X0031039Y0005382D03*
G01X0032039Y0004382D03*
G01X0032039Y0005382D03*
G01X0033039Y0004382D03*
G01X0033039Y0005382D03*
G01X0034039Y0004382D03*
G01X0034039Y0005382D03*
G01X0035039Y0004382D03*
G01X0035039Y0005382D03*
G01X0036039Y0004382D03*
G01X0036039Y0005382D03*
G01X0037039Y0004382D03*
G01X0037039Y0005382D03*
G01X0038039Y0004382D03*
G01X0038039Y0005382D03*
G01X0039039Y0004382D03*
G01X0039039Y0005382D03*
G01X0040039Y0004382D03*
G01X0040039Y0005382D03*
G01X0041039Y0004382D03*
G01X0041039Y0005382D03*
M02*
